<svg xmlns="http://www.w3.org/2000/svg" width="103" height="30" viewBox="0 0 103 30" fill="none">
                <rect x="0.5" y="0.5" width="102" height="29" rx="5.5" fill="white" stroke="#35BCF3"></rect>
                <path d="M24.3637 15.5724C24.3413 13.2983 26.398 12.192 26.492 12.1405C25.3272 10.5862 23.5219 10.3738 22.8875 10.3568C21.3712 10.2108 19.9004 11.1873 19.128 11.1873C18.3402 11.1873 17.1507 10.371 15.8688 10.3949C14.2192 10.4182 12.6759 11.2924 11.8295 12.6499C10.0828 15.4178 11.3855 19.4854 13.059 21.7228C13.8962 22.8185 14.8744 24.0419 16.1548 23.9989C17.4074 23.9516 17.8754 23.2679 19.387 23.2679C20.8848 23.2679 21.3242 23.9989 22.63 23.9714C23.9744 23.9516 24.8208 22.8707 25.6286 21.7651C26.5961 20.5092 26.9846 19.2723 27 19.2088C26.9684 19.199 24.3891 18.298 24.3637 15.5724Z" fill="#4D4D4F"></path>
                <path d="M21.8969 8.88504C22.5707 8.11386 23.0316 7.06469 22.9037 6C21.9285 6.03951 20.709 6.61737 20.0068 7.37161C19.3855 8.03625 18.8304 9.12564 18.9738 10.1501C20.0692 10.2249 21.1939 9.64423 21.8969 8.88504Z" fill="#4D4D4F"></path>
                <path d="M36.6044 7.97563C36.6044 8.64974 36.3677 9.15719 35.8948 9.49797C35.4568 9.8124 34.8344 9.96991 34.0282 9.96991C33.6285 9.96991 33.2864 9.95501 33 9.92523V6.24195C33.3736 6.19041 33.776 6.16406 34.2106 6.16406C34.9786 6.16406 35.5574 6.30667 35.9478 6.5919C36.3851 6.91435 36.6044 7.3754 36.6044 7.97563ZM35.8633 7.99224C35.8633 7.55524 35.7278 7.22019 35.4568 6.98651C35.1859 6.75341 34.7901 6.63657 34.269 6.63657C34.0477 6.63657 33.8592 6.64917 33.7029 6.67552V9.47563C33.7894 9.48709 33.9477 9.49224 34.1778 9.49224C34.7157 9.49224 35.1309 9.36452 35.4233 9.10908C35.7157 8.85364 35.8633 8.48136 35.8633 7.99224Z" fill="#222222"></path>
                <path d="M40.5362 8.56618C40.5362 8.98142 40.3973 9.32162 40.1196 9.58852C39.8285 9.86286 39.4429 9.99974 38.9613 9.99974C38.4972 9.99974 38.1276 9.86859 37.8519 9.60513C37.577 9.34224 37.4395 9.01063 37.4395 8.61086C37.4395 8.19276 37.581 7.84969 37.8654 7.58336C38.1497 7.31704 38.5321 7.18359 39.0136 7.18359C39.4778 7.18359 39.8507 7.31475 40.1331 7.57764C40.4013 7.83308 40.5362 8.16297 40.5362 8.56618ZM39.8071 8.58566C39.8071 8.33651 39.744 8.12288 39.6186 7.94476C39.4711 7.72941 39.2611 7.62174 38.9881 7.62174C38.7058 7.62174 38.4911 7.72941 38.3436 7.94476C38.2175 8.12288 38.1551 8.33995 38.1551 8.59654C38.1551 8.84568 38.2182 9.05931 38.3436 9.23743C38.4958 9.45278 38.7078 9.56045 38.9814 9.56045C39.2497 9.56045 39.4603 9.45106 39.6119 9.2317C39.742 9.05015 39.8071 8.8348 39.8071 8.58566Z" fill="#222222"></path>
                <path d="M45.8017 7.23828L44.8124 9.93817H44.1685L43.7587 8.76577C43.6547 8.4731 43.5702 8.18215 43.5045 7.89349H43.4917C43.4307 8.19017 43.3462 8.48055 43.2375 8.76577L42.8023 9.93817H42.151L41.2207 7.23828H41.9431L42.3006 8.52179C42.3871 8.82534 42.4582 9.11457 42.5152 9.38834H42.5279C42.5802 9.16268 42.6668 8.87517 42.7888 8.52751L43.2375 7.23885H43.8103L44.2403 8.50002C44.3442 8.80758 44.4287 9.10369 44.4938 9.38891H44.5132C44.5609 9.11113 44.6326 8.81503 44.7279 8.50002L45.1115 7.23885H45.8017V7.23828Z" fill="#222222"></path>
                <path d="M49.4472 9.93627H48.7443V8.38988C48.7443 7.91336 48.5323 7.67511 48.1071 7.67511C47.8985 7.67511 47.7301 7.7404 47.5994 7.87155C47.4699 8.00271 47.4042 8.15735 47.4042 8.33433V9.9357H46.7013V8.00787C46.7013 7.77075 46.6925 7.51359 46.6758 7.23524H47.2935L47.3264 7.65735H47.3458C47.4277 7.52619 47.5497 7.41795 47.71 7.33146C47.9005 7.23066 48.1138 7.17969 48.3472 7.17969C48.6423 7.17969 48.8878 7.26102 49.083 7.42425C49.3258 7.62413 49.4472 7.92253 49.4472 8.31886V9.93627Z" fill="#222222"></path>
                <path d="M51.3878 9.93872H50.6855V6H51.3878V9.93872Z" fill="#222222"></path>
                <path d="M55.5244 8.56618C55.5244 8.98142 55.3856 9.32162 55.1079 9.58852C54.8168 9.86286 54.4305 9.99974 53.9496 9.99974C53.4848 9.99974 53.1152 9.86859 52.8402 9.60513C52.5652 9.34224 52.4277 9.01063 52.4277 8.61086C52.4277 8.19276 52.5693 7.84969 52.8536 7.58336C53.138 7.31704 53.5203 7.18359 54.0012 7.18359C54.466 7.18359 54.8383 7.31475 55.1213 7.57764C55.3896 7.83308 55.5244 8.16297 55.5244 8.56618ZM54.7947 8.58566C54.7947 8.33651 54.7316 8.12288 54.6062 7.94476C54.4593 7.72941 54.2487 7.62174 53.9764 7.62174C53.6934 7.62174 53.4787 7.72941 53.3319 7.94476C53.2058 8.12288 53.1434 8.33995 53.1434 8.59654C53.1434 8.84568 53.2064 9.05931 53.3319 9.23743C53.4841 9.45278 53.6961 9.56045 53.9697 9.56045C54.238 9.56045 54.4479 9.45106 54.5995 9.2317C54.7303 9.05015 54.7947 8.8348 54.7947 8.58566Z" fill="#222222"></path>
                <path d="M58.9238 9.93846H58.2927L58.2403 9.62747H58.2209C58.0049 9.87546 57.6971 9.99974 57.2973 9.99974C56.9988 9.99974 56.7574 9.91784 56.5756 9.75519C56.4106 9.60742 56.3281 9.42357 56.3281 9.20536C56.3281 8.87546 56.4891 8.62403 56.8131 8.44992C57.1363 8.2758 57.5911 8.19047 58.1766 8.19448V8.14407C58.1766 7.7884 57.958 7.61086 57.52 7.61086C57.2081 7.61086 56.9331 7.67787 56.6957 7.81074L56.5528 7.4167C56.8466 7.26149 57.2094 7.18359 57.6374 7.18359C58.4637 7.18359 58.8782 7.55587 58.8782 8.30043V9.2947C58.8782 9.56446 58.8936 9.77924 58.9238 9.93846ZM58.1941 9.01063V8.59425C57.4187 8.58279 57.031 8.76435 57.031 9.13835C57.031 9.27924 57.0753 9.38462 57.1658 9.45507C57.2564 9.52552 57.3718 9.56045 57.5093 9.56045C57.6635 9.56045 57.8077 9.51865 57.9392 9.4356C58.0713 9.35198 58.1525 9.24602 58.1827 9.11601C58.19 9.0868 58.1941 9.05129 58.1941 9.01063Z" fill="#222222"></path>
                <path d="M62.9206 9.93872H62.2968L62.2639 9.50515H62.2445C62.0453 9.83505 61.7059 10 61.229 10C60.8481 10 60.5308 9.87228 60.2793 9.61684C60.0278 9.3614 59.9023 9.02978 59.9023 8.62257C59.9023 8.18557 60.0385 7.83161 60.3122 7.56128C60.5771 7.30928 60.9017 7.18328 61.288 7.18328C61.7126 7.18328 62.0097 7.30527 62.1788 7.54983H62.1922V6H62.8957V9.21134C62.8957 9.47423 62.9038 9.71649 62.9206 9.93872ZM62.1922 8.80011V8.34994C62.1922 8.27205 62.1855 8.20905 62.1727 8.16094C62.1331 8.01661 62.048 7.89519 61.9185 7.79725C61.7877 7.69931 61.6301 7.65006 61.4483 7.65006C61.1861 7.65006 60.9809 7.73883 60.8299 7.91695C60.6804 8.09507 60.6046 8.32245 60.6046 8.60023C60.6046 8.86712 60.6763 9.08362 60.8206 9.25029C60.9728 9.42783 61.178 9.51661 61.4349 9.51661C61.6657 9.51661 61.8501 9.44273 61.9903 9.29439C62.1258 9.1575 62.1922 8.99255 62.1922 8.80011Z" fill="#222222"></path>
                <path d="M68.9326 8.56618C68.9326 8.98142 68.7938 9.32162 68.5161 9.58852C68.225 9.86286 67.84 9.99974 67.3578 9.99974C66.8943 9.99974 66.5248 9.86859 66.2484 9.60513C65.9734 9.34224 65.8359 9.01063 65.8359 8.61086C65.8359 8.19276 65.9775 7.84969 66.2618 7.58336C66.5462 7.31704 66.9285 7.18359 67.4108 7.18359C67.8742 7.18359 68.2478 7.31475 68.5295 7.57764C68.7978 7.83308 68.9326 8.16297 68.9326 8.56618ZM68.2042 8.58566C68.2042 8.33651 68.1412 8.12288 68.0158 7.94476C67.8675 7.72941 67.6583 7.62174 67.3846 7.62174C67.1029 7.62174 66.8883 7.72941 66.7401 7.94476C66.614 8.12288 66.5516 8.33995 66.5516 8.59654C66.5516 8.84568 66.6146 9.05931 66.7401 9.23743C66.8923 9.45278 67.1043 9.56045 67.3779 9.56045C67.6462 9.56045 67.8575 9.45106 68.0091 9.2317C68.1385 9.05015 68.2042 8.8348 68.2042 8.58566Z" fill="#222222"></path>
                <path d="M72.7102 9.93627H72.0079V8.38988C72.0079 7.91336 71.796 7.67511 71.3701 7.67511C71.1615 7.67511 70.9931 7.7404 70.863 7.87155C70.7329 8.00271 70.6678 8.15735 70.6678 8.33433V9.9357H69.9643V8.00787C69.9643 7.77075 69.9562 7.51359 69.9395 7.23524H70.5565L70.5894 7.65735H70.6088C70.6913 7.52619 70.8134 7.41795 70.973 7.33146C71.1642 7.23066 71.3768 7.17969 71.6109 7.17969C71.9053 7.17969 72.1508 7.26102 72.346 7.42425C72.5894 7.62413 72.7102 7.92253 72.7102 8.31886V9.93627Z" fill="#222222"></path>
                <path d="M77.4412 7.68449H76.6672V8.99606C76.6672 9.3294 76.8047 9.49606 77.077 9.49606C77.2031 9.49606 77.3078 9.4869 77.3903 9.468L77.4084 9.92332C77.2695 9.968 77.0871 9.99033 76.8624 9.99033C76.5847 9.99033 76.3688 9.91817 76.2125 9.77384C76.0555 9.62951 75.9777 9.38667 75.9777 9.04589V7.68449H75.5156V7.23489H75.9777V6.74005L76.6666 6.5625V7.23432H77.4406V7.68449H77.4412Z" fill="#222222"></path>
                <path d="M81.1619 9.93872H80.4584V8.40378C80.4584 7.91982 80.2464 7.67755 79.8218 7.67755C79.4959 7.67755 79.2732 7.81787 79.1511 8.09851C79.1303 8.1575 79.1183 8.22967 79.1183 8.31443V9.93814H78.416V6H79.1183V7.62715H79.1317C79.353 7.33104 79.6703 7.18328 80.0814 7.18328C80.3725 7.18328 80.6133 7.2646 80.8044 7.42783C81.0426 7.63116 81.1619 7.93356 81.1619 8.33333V9.93872Z" fill="#222222"></path>
                <path d="M85.0004 8.46205C85.0004 8.56972 84.991 8.66021 84.9743 8.7341H82.8662C82.8756 9.00099 82.9762 9.20431 83.1714 9.34521C83.3498 9.47121 83.5798 9.53421 83.8616 9.53421C84.1734 9.53421 84.4578 9.49183 84.714 9.40649L84.824 9.82344C84.5242 9.93455 84.1714 9.99011 83.763 9.99011C83.2733 9.99011 82.8877 9.86697 82.6087 9.6207C82.3283 9.37442 82.1895 9.04395 82.1895 8.62929C82.1895 8.22207 82.3189 7.88301 82.5798 7.61268C82.8521 7.32402 83.2203 7.17969 83.6852 7.17969C84.1399 7.17969 84.4853 7.32402 84.7187 7.61268C84.9072 7.84177 85.0004 8.12528 85.0004 8.46205ZM84.3297 8.30683C84.3351 8.12871 84.2888 7.97522 84.1936 7.84578C84.0715 7.67911 83.8857 7.59549 83.6342 7.59549C83.4048 7.59549 83.2177 7.67682 83.0748 7.84005C82.9581 7.97007 82.889 8.12528 82.8662 8.30683H84.3297Z" fill="#222222"></path>
                <path d="M41.0303 21.5315H39.4071L38.5179 19.0622H35.4273L34.5803 21.5315H33L36.062 13.125H37.9533L41.0303 21.5315ZM38.2499 18.0263L37.4458 15.8312C37.3607 15.6069 37.2013 15.0788 36.9662 14.2475H36.9376C36.844 14.605 36.6931 15.1331 36.4859 15.8312L35.6961 18.0263H38.2499Z" fill="#42BCE6"></path>
                <path d="M48.9058 18.4247C48.9058 19.4556 48.5906 20.2705 47.9602 20.8687C47.3956 21.4012 46.6944 21.6672 45.8574 21.6672C44.954 21.6672 44.305 21.3804 43.9097 20.8068H43.8811V24H42.3572V17.4639C42.3572 16.8158 42.3379 16.1506 42.3008 15.4684H43.6409L43.726 16.4292H43.7546C44.2628 15.7053 45.034 15.344 46.069 15.344C46.8781 15.344 47.5535 15.6263 48.0939 16.1917C48.6357 16.7577 48.9058 17.5018 48.9058 18.4247ZM47.3534 18.474C47.3534 17.884 47.2033 17.3976 46.9017 17.0148C46.5722 16.6156 46.1297 16.4159 45.5751 16.4159C45.1991 16.4159 44.8575 16.5271 44.5523 16.7463C44.2463 16.9674 44.0462 17.2561 43.9526 17.6136C43.9054 17.7804 43.8818 17.9168 43.8818 18.0242V19.0349C43.8818 19.4758 44.0348 19.8479 44.3407 20.1517C44.6466 20.4556 45.044 20.6072 45.5329 20.6072C46.1069 20.6072 46.5536 20.4114 46.8731 20.021C47.1933 19.63 47.3534 19.1145 47.3534 18.474Z" fill="#42BCE6"></path>
                <path d="M56.7938 18.4247C56.7938 19.4556 56.4786 20.2705 55.8475 20.8687C55.2835 21.4012 54.5823 21.6672 53.7454 21.6672C52.8419 21.6672 52.1929 21.3804 51.7984 20.8068H51.7698V24H50.2459V17.4639C50.2459 16.8158 50.2266 16.1506 50.1895 15.4684H51.5296L51.6147 16.4292H51.6433C52.1507 15.7053 52.922 15.344 53.9577 15.344C54.766 15.344 55.4415 15.6263 55.9833 16.1917C56.5229 16.7577 56.7938 17.5018 56.7938 18.4247ZM55.2414 18.474C55.2414 17.884 55.0905 17.3976 54.7889 17.0148C54.4594 16.6156 54.0184 16.4159 53.463 16.4159C53.0864 16.4159 52.7454 16.5271 52.4395 16.7463C52.1336 16.9674 51.9342 17.2561 51.8405 17.6136C51.7941 17.7804 51.7698 17.9168 51.7698 18.0242V19.0349C51.7698 19.4758 51.9227 19.8479 52.2272 20.1517C52.5331 20.455 52.9305 20.6072 53.4209 20.6072C53.9948 20.6072 54.4415 20.4114 54.761 20.021C55.0812 19.63 55.2414 19.1145 55.2414 18.474Z" fill="#42BCE6"></path>
                <path d="M65.612 19.1722C65.612 19.8873 65.3311 20.4691 64.7671 20.9182C64.1474 21.409 63.2847 21.6541 62.1761 21.6541C61.1526 21.6541 60.3321 21.4798 59.7109 21.1305L60.064 20.008C60.733 20.3655 61.4671 20.5449 62.2669 20.5449C62.8409 20.5449 63.2876 20.4299 63.6085 20.2013C63.928 19.9726 64.0874 19.6656 64.0874 19.2828C64.0874 18.9417 63.9559 18.6542 63.6921 18.4212C63.4298 18.1881 62.9917 17.9714 62.3798 17.7711C60.7145 17.2222 59.8825 16.4181 59.8825 15.3606C59.8825 14.6696 60.1741 14.1029 60.7581 13.662C61.3399 13.2205 62.1161 13 63.0867 13C63.9523 13 64.6714 13.1333 65.2453 13.3992L64.8643 14.4971C64.3283 14.2394 63.7222 14.1105 63.0438 14.1105C62.5078 14.1105 62.0889 14.2274 61.7887 14.4598C61.535 14.6677 61.4078 14.921 61.4078 15.221C61.4078 15.5533 61.5529 15.8281 61.8445 16.0441C62.0982 16.2437 62.5592 16.4598 63.2283 16.6929C64.0467 16.9841 64.6478 17.3245 65.0345 17.7149C65.4197 18.104 65.612 18.5911 65.612 19.1722Z" fill="#42BCE6"></path>
                <path d="M70.6516 16.4782H68.972V19.4212C68.972 20.1698 69.2679 20.5437 69.8611 20.5437C70.1334 20.5437 70.3593 20.5229 70.538 20.4812L70.5802 21.5039C70.28 21.6031 69.8847 21.653 69.3951 21.653C68.7933 21.653 68.323 21.4906 67.9835 21.1666C67.6454 20.8419 67.4753 20.2974 67.4753 19.5324V16.4769H66.4746V15.4662H67.4753V14.3563L68.972 13.9571V15.4662H70.6516V16.4782Z" fill="#42BCE6"></path>
                <path d="M78.2297 18.4487C78.2297 19.3805 77.9281 20.1454 77.3263 20.7436C76.6951 21.3595 75.8574 21.6665 74.8132 21.6665C73.8068 21.6665 73.0056 21.3715 72.408 20.7815C71.8105 20.1915 71.5117 19.4468 71.5117 18.5492C71.5117 17.6098 71.8191 16.8404 72.4359 16.2422C73.0513 15.6434 73.8819 15.344 74.9261 15.344C75.9325 15.344 76.7423 15.639 77.3534 16.2296C77.9381 16.8025 78.2297 17.5422 78.2297 18.4487ZM76.6487 18.4923C76.6487 17.9333 76.5136 17.4538 76.2398 17.0539C75.9203 16.5701 75.4636 16.3288 74.8718 16.3288C74.2592 16.3288 73.7939 16.5707 73.4744 17.0539C73.2007 17.4544 73.0656 17.9415 73.0656 18.5176C73.0656 19.0766 73.2007 19.5561 73.4744 19.9553C73.8039 20.4392 74.2642 20.6805 74.8582 20.6805C75.44 20.6805 75.8967 20.4341 76.2263 19.9427C76.5072 19.5352 76.6487 19.0507 76.6487 18.4923Z" fill="#42BCE6"></path>
                <path d="M83.1833 16.6528C83.0324 16.6282 82.8716 16.6156 82.7029 16.6156C82.1669 16.6156 81.7523 16.7943 81.4607 17.1525C81.2069 17.4683 81.0797 17.8676 81.0797 18.3495V21.5301H79.5566L79.5709 17.3774C79.5709 16.6787 79.5516 16.0426 79.5137 15.469H80.841L80.8967 16.6288H80.9389C81.0997 16.2302 81.3535 15.9093 81.7008 15.6687C82.0403 15.452 82.407 15.344 82.8023 15.344C82.9431 15.344 83.0703 15.3528 83.1833 15.3686V16.6528Z" fill="#42BCE6"></path>
                <path d="M89.9997 18.208C89.9997 18.4493 89.9819 18.6527 89.944 18.8188H85.3724C85.3903 19.4177 85.6111 19.8757 86.0357 20.1915C86.421 20.4739 86.9191 20.6154 87.531 20.6154C88.2078 20.6154 88.8254 20.52 89.3808 20.3286L89.6195 21.2635C88.9705 21.5136 88.2043 21.6381 87.3201 21.6381C86.2566 21.6381 85.4217 21.3614 84.8142 20.8087C84.2081 20.2559 83.9043 19.5137 83.9043 18.5826C83.9043 17.6685 84.1866 16.9073 84.752 16.3003C85.3438 15.6522 86.1436 15.3281 87.15 15.3281C88.1385 15.3281 88.8869 15.6522 89.3951 16.3003C89.7975 16.8151 89.9997 17.4519 89.9997 18.208ZM88.5466 17.8587C88.5566 17.4594 88.4573 17.1145 88.2507 16.8233C87.987 16.4487 87.5817 16.2618 87.0364 16.2618C86.5382 16.2618 86.1329 16.4443 85.8234 16.8107C85.5697 17.1019 85.4189 17.4512 85.3724 17.858H88.5466V17.8587Z" fill="#42BCE6"></path>
              </svg>