<svg xmlns="http://www.w3.org/2000/svg" width="14" height="14" viewBox="0 0 14 14" fill="none">
                      <path d="M10 10V11.5C10 11.8978 9.84196 12.2794 9.56066 12.5607C9.27935 12.842 8.89782 13 8.5 13H2.5C2.10218 13 1.72064 12.842 1.43934 12.5607C1.15804 12.2794 1 11.8978 1 11.5V5.5C1 5.10218 1.15804 4.72064 1.43934 4.43934C1.72064 4.15804 2.10218 4 2.5 4H4M4 2.5C4 2.10218 4.15804 1.72064 4.43934 1.43934C4.72064 1.15804 5.10218 1 5.5 1H11.5C11.8978 1 12.2794 1.15804 12.5607 1.43934C12.842 1.72064 13 2.10218 13 2.5V8.5C13 8.89782 12.842 9.27935 12.5607 9.56066C12.2794 9.84196 11.8978 10 11.5 10H5.5C5.10218 10 4.72064 9.84196 4.43934 9.56066C4.15804 9.27935 4 8.89782 4 8.5V2.5Z" stroke="#15B0FE" stroke-linecap="round" stroke-linejoin="round"></path>
                    </svg>