<svg
                xmlns="http://www.w3.org/2000/svg"
                width="103"
                height="30"
                viewBox="0 0 103 30"
                fill="none"
              >
                <rect
                  x="0.5"
                  y="0.5"
                  width="102"
                  height="29"
                  rx="5.5"
                  fill="white"
                  stroke="#35BCF3"
                />
                <path
                  d="M11.3017 6.77244C11.1106 6.97549 11 7.29162 11 7.70103V22.3042C11 22.7136 11.1106 23.0297 11.3017 23.2328L11.3489 23.2773L19.412 15.0975V14.9044L11.3489 6.72457L11.3017 6.77244Z"
                  fill="#4D4D4F"
                />
                <path
                  d="M23.0714 17.8281L20.3867 15.1001V14.907L23.0747 12.179L23.1349 12.2145L26.3182 14.0527C27.2266 14.5744 27.2266 15.4328 26.3182 15.9577L23.1349 17.7926L23.0714 17.8281Z"
                  fill="#4D4D4F"
                />
                <path
                  d="M22.6475 18.2994L19.8994 15.5104L11.7891 23.7422C12.0908 24.0641 12.5829 24.1029 13.1424 23.781L22.6475 18.2994Z"
                  fill="#4D4D4F"
                />
                <path
                  d="M22.6475 11.707L13.1424 6.22549C12.5829 5.90688 12.0908 5.94567 11.7891 6.26758L19.8994 14.4961L22.6475 11.707Z"
                  fill="#4D4D4F"
                />
                <path
                  d="M37.0594 8.1555C37.0594 8.6882 36.892 9.11483 36.5624 9.43302C36.1834 9.81021 35.6898 10 35.0849 10C34.5068 10 34.0132 9.80702 33.6082 9.42664C33.2025 9.04067 33 8.56699 33 8C33 7.43301 33.2025 6.95933 33.6082 6.57656C34.0132 6.19298 34.5068 6 35.0849 6C35.3727 6 35.6471 6.05662 35.909 6.16188C36.17 6.26794 36.3825 6.41148 36.5365 6.58852L36.1868 6.92504C35.9182 6.62281 35.5526 6.47368 35.0849 6.47368C34.6632 6.47368 34.2976 6.61404 33.9872 6.89713C33.6802 7.18102 33.5262 7.54864 33.5262 8C33.5262 8.45136 33.6802 8.82217 33.9872 9.10606C34.2976 9.38596 34.6632 9.52951 35.0849 9.52951C35.5325 9.52951 35.909 9.38596 36.206 9.10287C36.4018 8.91547 36.513 8.6571 36.5423 8.32695H35.0849V7.86603H37.0293C37.0527 7.96571 37.0594 8.0622 37.0594 8.1555Z"
                  fill="#222222"
                  stroke="#42BCE6"
                  stroke-width="0.0620717"
                  stroke-miterlimit="10"
                />
                <path
                  d="M40.1442 6.55563H38.3178V7.76776H39.9643V8.22868H38.3178V9.4408H40.1442V9.9105H37.8008V6.08594H40.1442V6.55563Z"
                  fill="#222222"
                  stroke="#42BCE6"
                  stroke-width="0.0620717"
                  stroke-miterlimit="10"
                />
                <path
                  d="M42.3189 9.9105H41.8019V6.55563H40.6816V6.08594H43.44V6.55563H42.3189V9.9105Z"
                  fill="#222222"
                  stroke="#42BCE6"
                  stroke-width="0.0620717"
                  stroke-miterlimit="10"
                />
                <path
                  d="M45.4355 9.9105V6.08594H45.9518V9.9105H45.4355Z"
                  fill="#222222"
                  stroke="#42BCE6"
                  stroke-width="0.0620717"
                  stroke-miterlimit="10"
                />
                <path
                  d="M48.2408 9.9105H47.728V6.55563H46.6035V6.08594H49.3653V6.55563H48.2408V9.9105Z"
                  fill="#222222"
                  stroke="#42BCE6"
                  stroke-width="0.0620717"
                  stroke-miterlimit="10"
                />
                <path
                  d="M54.5892 9.42026C54.1935 9.80702 53.7032 10 53.1184 10C52.5302 10 52.04 9.80702 51.6442 9.42026C51.2493 9.03429 51.0527 8.56061 51.0527 8C51.0527 7.43939 51.2493 6.96571 51.6442 6.57975C52.04 6.19298 52.5302 6 53.1184 6C53.6999 6 54.1901 6.19298 54.5859 6.58293C54.9841 6.97209 55.1807 7.44258 55.1807 8C55.1807 8.56061 54.9841 9.03429 54.5892 9.42026ZM52.0266 9.09968C52.3244 9.38597 52.6867 9.52951 53.1184 9.52951C53.5468 9.52951 53.9124 9.38597 54.2069 9.09968C54.5039 8.8134 54.6545 8.44577 54.6545 8C54.6545 7.55423 54.5039 7.1866 54.2069 6.90032C53.9124 6.61404 53.5468 6.47049 53.1184 6.47049C52.6867 6.47049 52.3244 6.61404 52.0266 6.90032C51.7296 7.1866 51.579 7.55423 51.579 8C51.579 8.44577 51.7296 8.8134 52.0266 9.09968Z"
                  fill="#222222"
                  stroke="#42BCE6"
                  stroke-width="0.0620717"
                  stroke-miterlimit="10"
                />
                <path
                  d="M55.9062 9.9105V6.08594H56.5337L58.4848 9.06042H58.5074L58.4848 8.32517V6.08594H59.001V9.9105H58.4622L56.4191 6.78929H56.3965L56.4191 7.52772V9.9105H55.9062Z"
                  fill="#222222"
                  stroke="#42BCE6"
                  stroke-width="0.0620717"
                  stroke-miterlimit="10"
                />
                <path
                  d="M51.2167 16.0396C49.6376 16.0396 48.3476 17.1941 48.3476 18.787C48.3476 20.367 49.6376 21.5336 51.2167 21.5336C52.7992 21.5336 54.0893 20.367 54.0893 18.787C54.0893 17.1941 52.7992 16.0396 51.2167 16.0396ZM51.2167 20.4517C50.3503 20.4517 49.6048 19.7647 49.6048 18.787C49.6048 17.7964 50.3503 17.1215 51.2167 17.1215C52.0832 17.1215 52.832 17.7964 52.832 18.787C52.832 19.7647 52.0832 20.4517 51.2167 20.4517ZM44.9565 16.0396C43.374 16.0396 42.0874 17.1941 42.0874 18.787C42.0874 20.367 43.374 21.5336 44.9565 21.5336C46.5382 21.5336 47.8257 20.367 47.8257 18.787C47.8257 17.1941 46.5382 16.0396 44.9565 16.0396ZM44.9565 20.4517C44.0892 20.4517 43.3413 19.7647 43.3413 18.787C43.3413 17.7964 44.0892 17.1215 44.9565 17.1215C45.823 17.1215 46.5684 17.7964 46.5684 18.787C46.5684 19.7647 45.823 20.4517 44.9565 20.4517ZM37.5071 16.8817V18.0491H40.4091C40.3242 18.7014 40.0973 19.181 39.7493 19.5152C39.3258 19.9189 38.666 20.367 37.5071 20.367C35.7212 20.367 34.3228 18.9824 34.3228 17.2668C34.3228 15.5512 35.7212 14.1666 37.5071 14.1666C38.4728 14.1666 39.1753 14.5291 39.6939 14.999L40.5502 14.1763C39.825 13.511 38.8602 13 37.5071 13C35.0582 13 33 14.9142 33 17.2668C33 19.6194 35.0582 21.5336 37.5071 21.5336C38.8308 21.5336 39.825 21.117 40.6066 20.3355C41.4075 19.5661 41.6571 18.4843 41.6571 17.6107C41.6571 17.3394 41.6335 17.09 41.5915 16.8817H37.5071ZM67.9686 17.7867C67.7325 17.1723 67.0038 16.0396 65.5197 16.0396C64.049 16.0396 62.8245 17.153 62.8245 18.787C62.8245 20.3258 64.0364 21.5336 65.6609 21.5336C66.9744 21.5336 67.7325 20.7642 68.0443 20.3161L67.0694 19.692C66.7442 20.149 66.3013 20.4517 65.6609 20.4517C65.0247 20.4517 64.5683 20.1716 64.2759 19.6194L68.1006 18.0992L67.9686 17.7867ZM64.0691 18.7014C64.0364 17.6422 64.9255 17.0997 65.5625 17.0997C66.0618 17.0997 66.4853 17.3395 66.6265 17.6826L64.0691 18.7014ZM60.9605 21.3665H62.2177V13.2931H60.9605V21.3665ZM58.9015 16.6516H58.8594C58.5771 16.3303 58.0384 16.0396 57.3559 16.0396C55.9239 16.0396 54.6145 17.2474 54.6145 18.7959C54.6145 20.3355 55.9239 21.5336 57.3559 21.5336C58.0384 21.5336 58.5771 21.2405 58.8594 20.9095H58.9015V21.3035C58.9015 22.3538 58.3174 22.9182 57.3753 22.9182C56.6071 22.9182 56.1306 22.3853 55.934 21.9372L54.8406 22.3756C55.1557 23.1039 55.9903 24 57.3753 24C58.8493 24 60.0932 23.1668 60.0932 21.1396V16.2068H58.9015V16.6516ZM57.4635 20.4517C56.597 20.4517 55.8718 19.755 55.8718 18.7959C55.8718 17.8279 56.597 17.1215 57.4635 17.1215C58.3174 17.1215 58.9905 17.8279 58.9905 18.7959C58.9905 19.755 58.3174 20.4517 57.4635 20.4517ZM73.8549 13.2931H70.8479V21.3665H72.1018V18.3075H73.8549C75.2474 18.3075 76.6131 17.3394 76.6131 15.7999C76.6131 14.2611 75.2441 13.2931 73.8549 13.2931ZM73.8877 17.1844H72.1018V14.4161H73.8877C74.8239 14.4161 75.3584 15.1629 75.3584 15.7999C75.3584 16.4247 74.8239 17.1844 73.8877 17.1844ZM81.6388 16.0243C80.7328 16.0243 79.7907 16.4086 79.4033 17.2603L80.516 17.7084C80.7555 17.2603 81.1959 17.115 81.6614 17.115C82.3119 17.115 82.9716 17.4904 82.9817 18.1532V18.238C82.7548 18.1121 82.2691 17.9256 81.6715 17.9256C80.4731 17.9256 79.252 18.5593 79.252 19.7421C79.252 20.8239 80.2336 21.5207 81.3371 21.5207C82.1808 21.5207 82.6464 21.1549 82.9389 20.7295H82.9817V21.3535H84.1928V18.2566C84.1928 16.8252 83.0801 16.0243 81.6388 16.0243ZM81.4875 20.4485C81.0774 20.4485 80.5059 20.2531 80.5059 19.7647C80.5059 19.1398 81.2186 18.9 81.8354 18.9C82.3876 18.9 82.6464 19.0171 82.9817 19.1713C82.8834 19.9189 82.2136 20.4485 81.4875 20.4485ZM88.6049 16.2011L87.1636 19.7009H87.1208L85.6307 16.2011H84.2785L86.5173 21.092L85.2399 23.8135H86.5501L90 16.2011H88.6049ZM77.3022 21.3665H78.5595V13.2931H77.3022V21.3665Z"
                  fill="#42BCE6"
                />
              </svg>