<svg
              xmlns="http://www.w3.org/2000/svg"
              width="184"
              height="33"
              viewBox="0 0 184 33"
              fill="none"
            >
              <circle
                cx="16"
                cy="17"
                r="15"
                fill="white"
                stroke="#03ACF2"
                stroke-width="0.5"
              />
              <path
                fill-rule="evenodd"
                clip-rule="evenodd"
                d="M17.5329 13.4674V11.4831C17.5329 10.5872 17.7388 10.1341 19.185 10.1341H20.9996V6.80078H17.9717C14.2613 6.80078 13.0371 8.4362 13.0371 11.2435V13.4674H10.5996V16.8008H13.0371V26.8008H17.5329V16.8008H20.5879L20.9996 13.4674H17.5329Z"
                fill="#03ACF2"
              />
              <circle
                cx="68"
                cy="17"
                r="15"
                fill="white"
                stroke="#03ACF2"
                stroke-width="0.5"
              />
              <path
                fill-rule="evenodd"
                clip-rule="evenodd"
                d="M74.2445 10H62.2264C61.57 10 60.9961 10.4726 60.9961 11.1215V23.1659C60.9961 23.8186 61.57 24.4 62.2264 24.4H74.2408C74.9009 24.4 75.3961 23.8148 75.3961 23.1659V11.1215C75.3998 10.4726 74.9009 10 74.2445 10ZM65.4556 22.004H63.3926V15.5898H65.4556V22.004ZM64.4954 14.6154H64.4804C63.8202 14.6154 63.3926 14.124 63.3926 13.5089C63.3926 12.8825 63.8314 12.4023 64.5066 12.4023C65.1818 12.4023 65.5944 12.8787 65.6094 13.5089C65.6094 14.124 65.1818 14.6154 64.4954 14.6154ZM72.9969 22.0017H70.9339V18.4945C70.9339 17.6543 70.6338 17.0804 69.8874 17.0804C69.3172 17.0804 68.9797 17.4668 68.8296 17.8419C68.7734 17.9769 68.7583 18.1607 68.7583 18.3483V22.0017H66.6953V15.5875H68.7583V16.4803C69.0584 16.0527 69.5273 15.4375 70.6188 15.4375C71.9729 15.4375 72.9969 16.3302 72.9969 18.2545V22.0017Z"
                fill="#03ACF2"
              />
              <circle
                cx="119"
                cy="17"
                r="15"
                fill="white"
                stroke="#03ACF2"
                stroke-width="0.5"
              />
              <path
                fill-rule="evenodd"
                clip-rule="evenodd"
                d="M127.199 12.3174C126.609 12.5741 125.979 12.7474 125.314 12.8274C125.992 12.4274 126.514 11.7941 126.758 11.0408C126.124 11.4108 125.423 11.6808 124.673 11.8241C124.073 11.1941 123.219 10.8008 122.276 10.8008C120.462 10.8008 118.994 12.2474 118.994 14.0308C118.994 14.2841 119.021 14.5308 119.079 14.7674C116.349 14.6341 113.929 13.3474 112.311 11.3908C112.03 11.8674 111.867 12.4241 111.867 13.0141C111.867 14.1341 112.45 15.1241 113.332 15.7041C112.789 15.6908 112.281 15.5441 111.84 15.3008C111.84 15.3141 111.84 15.3274 111.84 15.3408C111.84 16.9074 112.972 18.2108 114.474 18.5074C114.2 18.5808 113.908 18.6208 113.61 18.6208C113.4 18.6208 113.193 18.6008 112.993 18.5608C113.41 19.8441 114.624 20.7774 116.061 20.8041C114.939 21.6708 113.522 22.1874 111.982 22.1874C111.718 22.1874 111.457 22.1708 111.199 22.1408C112.647 23.0674 114.373 23.6008 116.224 23.6008C122.269 23.6008 125.572 18.6774 125.572 14.4074C125.572 14.2674 125.568 14.1274 125.562 13.9908C126.202 13.5341 126.758 12.9674 127.199 12.3174Z"
                fill="#03ACF2"
              />
              <circle
                cx="168"
                cy="16"
                r="15"
                fill="white"
                stroke="#03ACF2"
                stroke-width="0.5"
              />
              <circle cx="168.5" cy="15.5" r="2.5" fill="#03ACF2" />
              <path
                fill-rule="evenodd"
                clip-rule="evenodd"
                d="M165.837 12.8042C166.553 12.0882 167.505 11.6896 168.518 11.6896C169.531 11.6896 170.483 12.0903 171.199 12.8063C171.653 13.2606 171.978 13.8066 172.154 14.4159H175V10.5909C175 9.69357 174.307 9 173.409 9H163.661C162.763 9 162.002 9.69357 162.002 10.5909V14.4159H164.882C165.058 13.8066 165.383 13.2585 165.837 12.8042ZM173.92 11.8151C173.92 12.0544 173.726 12.2484 173.487 12.2484H172.187C171.948 12.2484 171.754 12.0544 171.754 11.8151V10.5153C171.754 10.276 171.948 10.082 172.187 10.082H173.487C173.726 10.082 173.92 10.276 173.92 10.5153V11.8151Z"
                fill="#03ACF2"
              />
              <path
                fill-rule="evenodd"
                clip-rule="evenodd"
                d="M171.197 18.1705C170.481 18.8866 169.529 19.2767 168.516 19.2767C167.503 19.2767 166.551 18.8887 165.835 18.1726C165.121 17.4579 164.726 16.4855 164.725 15.5039H162V20.3443C162 21.2417 162.761 22.003 163.659 22.003H173.407C174.305 22.003 174.998 21.2417 174.998 20.3443V15.5039H172.307C172.306 16.4855 171.912 17.4558 171.197 18.1705Z"
                fill="#03ACF2"
              />
            </svg>